<svg width="96" height="96" viewBox="0 0 96 96" fill="none" xmlns="http://www.w3.org/2000/svg">
<path d="M4.22401 30.5818L50.6535 3.60001L48.4358 2.32129L2.00833 29.2992L4.22401 30.5818Z" fill="#FE91AB"/>
<path d="M54.2669 43.9296C52.2202 42.7469 50.5613 39.8707 50.569 37.5245L50.64 3.60962L34.8461 12.7872L4.22401 30.5799L4.13953 64.5005C4.13569 66.8525 5.79457 69.7287 7.84129 70.9075C8.87233 71.5047 9.80545 71.5584 10.4813 71.1667L56.9069 44.185C56.2311 44.5767 55.2941 44.5229 54.265 43.9315L54.2669 43.9296Z" fill="#ED5D71"/>
<path d="M6.07873 31.8643L12.3495 35.4835L12.8064 35.7484V71.6927C12.1997 71.6563 11.5315 71.4489 10.8288 71.0438C8.16385 69.5001 6.00001 65.758 6.00961 62.6975L6.07873 31.8643Z" fill="#E3E7F0"/>
<path d="M60.2938 9.16797L60.2093 43.0886C60.2016 44.951 59.543 46.2701 58.4755 46.8864L12.0499 73.8681C13.1155 73.246 13.7741 71.9328 13.7837 70.0665L13.8662 36.144L60.2938 9.16797Z" fill="#ED5D71"/>
<path d="M12.048 35.3126L55.632 9.98396L49.6647 6.53564L6.08066 31.8662L12.048 35.3126Z" fill="white"/>
<path d="M2.00833 29.2993L1.92385 63.2219C1.91425 66.9774 4.56385 71.57 7.83361 73.4574C11.1034 75.3447 13.7703 73.8222 13.7818 70.0686L13.8663 36.146L11.6487 34.8673L11.5642 68.788C11.5584 71.138 9.88801 72.0904 7.83937 70.9095C5.79457 69.7288 4.13377 66.8526 4.14145 64.5025L4.22401 30.5819L2.00833 29.2993Z" fill="#D3374E"/>
<path d="M13.8663 36.146L60.2919 9.16617L58.0742 7.88745L11.6487 34.8673L13.8663 36.146Z" fill="#FE91AB"/>
<path d="M60.3053 3.60376L49.2653 10.0204L44.4979 18.3455L60.2938 9.16792L60.3053 3.60376Z" fill="#ED5D71"/>
<path d="M49.2672 10.0204L44.4999 18.3436L42.2842 17.0649L47.0496 8.73975L49.2672 10.0204Z" fill="#D3374E"/>
<path d="M49.2672 10.0206L60.3053 3.60779L58.0877 2.32715L47.0496 8.73995L49.2672 10.0206Z" fill="#FE91AB"/>
<path d="M21.1104 40.2873L67.536 13.3056L65.3203 12.0269L18.8928 39.0067L21.1104 40.2873Z" fill="#FFDD94"/>
<path d="M71.1514 53.6371C69.1046 52.4524 67.4458 49.5763 67.4534 47.23L67.5264 13.3132L51.7306 22.4908L21.1104 40.2854L21.0278 74.206C21.024 76.5561 22.6829 79.4342 24.7296 80.6131C25.7587 81.2102 26.6938 81.2639 27.3677 80.8723L73.7933 53.8905C73.1213 54.2822 72.1805 54.2284 71.1514 53.6352V53.6371Z" fill="#FEBB61"/>
<path d="M22.9632 41.5698L29.2339 45.189L29.6909 45.454V81.3983C29.0861 81.3618 28.4179 81.1545 27.7133 80.7493C25.0483 79.2057 22.8845 75.4636 22.8941 72.4031L22.9632 41.5698Z" fill="#E3E7F0"/>
<path d="M77.1783 18.8735L77.0957 52.7942C77.0861 54.6566 76.4275 55.9756 75.3619 56.5919L28.9344 83.5737C30.0019 82.9516 30.6605 81.6403 30.6682 79.7721L30.7527 45.8495L77.1783 18.8735Z" fill="#FEBB61"/>
<path d="M28.9344 45.0182L72.5184 19.6895L66.5491 16.2412L22.9651 41.5698L28.9344 45.0182Z" fill="white"/>
<path d="M18.8928 39.0068L18.8102 72.9275C18.7987 76.683 21.4502 81.2756 24.72 83.163C27.9878 85.0504 30.6566 83.5278 30.6682 79.7723L30.7507 45.8516L28.535 44.5729L28.4506 78.4936C28.4429 80.8436 26.7725 81.796 24.7258 80.6152C22.679 79.4344 21.0202 76.5582 21.0259 74.2081L21.1104 40.2856L18.8928 39.0068Z" fill="#EFA143"/>
<path d="M30.7507 45.8516L77.1763 18.8737L74.9607 17.595L28.5351 44.5748L30.7507 45.8516Z" fill="#FFDD94"/>
<path d="M77.1898 13.3096L66.1498 19.7262L61.3843 28.0513L77.1783 18.8737L77.1898 13.3096Z" fill="#FEBB61"/>
<path d="M66.1536 19.7262L61.3863 28.0494L59.1687 26.7707L63.936 18.4456L66.1536 19.7262Z" fill="#EFA143"/>
<path d="M66.1536 19.7261L77.1898 13.3133L74.9741 12.0308L63.9341 18.4455L66.1536 19.7261Z" fill="#FFDD94"/>
<path d="M37.9968 49.991L84.4224 23.0111L82.2067 21.7324L35.7811 48.7123L37.9968 49.991Z" fill="#7BB1FF"/>
<path d="M88.0378 63.3407C85.9911 62.158 84.3322 59.2818 84.3399 56.9356L84.4109 23.0188L68.617 32.1964L37.9968 49.989L37.9123 83.9116C37.9085 86.2617 39.5674 89.1398 41.6141 90.3186C42.6451 90.9138 43.5782 90.9695 44.2541 90.5778L90.6797 63.5961C90.0058 63.9878 89.0669 63.934 88.0378 63.3407Z" fill="#5793FB"/>
<path d="M39.8496 51.2756L46.1203 54.8948L46.5773 55.1598V91.1041C45.9725 91.0676 45.3024 90.8603 44.5997 90.4552C41.9347 88.9115 39.7709 85.1675 39.7805 82.1089L39.8496 51.2756Z" fill="#E3E7F0"/>
<path d="M94.0647 28.5791L93.9802 62.4997C93.9725 64.3621 93.3139 65.6812 92.2464 66.2975L45.8208 93.2793C46.8864 92.6572 47.5469 91.3439 47.5546 89.4777L47.6371 55.5551L94.0647 28.5791Z" fill="#5793FB"/>
<path d="M79.0637 66.2784L90.3667 59.712C90.3667 59.712 90.361 61.9373 90.3629 62.0775L79.0541 68.6496L79.0637 66.2784ZM79.0637 61.8106L90.3667 55.2423C90.3667 55.2423 90.361 57.4695 90.3629 57.6077L79.0541 64.1799L79.0637 61.8106ZM79.0637 57.3408L90.3667 50.7744C90.3667 50.7744 90.361 52.9978 90.3629 53.1379L79.0541 59.712L79.0637 57.3408Z" fill="#E3E7F0"/>
<path d="M45.8208 54.7237L89.4048 29.3932L83.4336 25.9468L39.8496 51.2754L45.8208 54.7237Z" fill="white"/>
<path d="M35.7792 48.7104L35.6947 82.633C35.6851 86.3885 38.3347 90.9812 41.6045 92.8666C44.8742 94.7559 47.543 93.2352 47.5526 89.4797L47.6371 55.5572L45.4195 54.2784L45.335 88.1991C45.3293 90.5492 43.6589 91.5015 41.6103 90.3207C39.5616 89.1399 37.9046 86.2637 37.9123 83.9137L37.9968 49.9911L35.7792 48.7104Z" fill="#3A53D0"/>
<path d="M47.6371 55.5571L94.0627 28.5773L91.8471 27.2986L45.4214 54.2784L47.6371 55.5571Z" fill="#7BB1FF"/>
<path d="M94.0762 23.0151L83.0362 29.4318L78.2707 37.7569L94.0646 28.5793L94.0762 23.0151Z" fill="#5793FB"/>
<path d="M83.04 29.4318L78.2727 37.755L76.0551 36.4762L80.8224 28.1511L83.04 29.4318Z" fill="#3A53D0"/>
<path d="M83.04 29.4317L94.0762 23.0189L91.8586 21.7363L80.8224 28.151L83.04 29.4317Z" fill="#7BB1FF"/>
</svg>
