<svg width="36" height="36" viewBox="0 0 36 36" fill="none" xmlns="http://www.w3.org/2000/svg">
<path d="M17.313 29.9999H3.59937C2.27391 29.9999 1.19946 28.9254 1.19946 27.6V25.2H19.6183L17.313 29.9999Z" fill="#D3DCFB"/>
<path d="M32.4018 10.8001V27.6H3.59937C2.27391 27.6 1.19946 26.5255 1.19946 25.2V10.8001L18.0006 4.80005L32.4018 10.8001Z" fill="#EBF5FC"/>
<path d="M5.43768 15.5999H4.1627C4.01352 15.5999 3.87045 15.5407 3.76496 15.4352C3.65947 15.3297 3.6002 15.1866 3.6002 15.0374V13.7625C3.6002 13.6133 3.65947 13.4702 3.76496 13.3647C3.87045 13.2592 4.01352 13.2 4.1627 13.2H5.43768C5.58687 13.2 5.72994 13.2592 5.83543 13.3647C5.94092 13.4702 6.00018 13.6133 6.00018 13.7625V15.0374C6.00018 15.1866 5.94092 15.3297 5.83543 15.4352C5.72994 15.5407 5.58687 15.5999 5.43768 15.5999ZM10.2377 15.5999H8.96273C8.81354 15.5999 8.67047 15.5407 8.56498 15.4352C8.45949 15.3297 8.40023 15.1866 8.40023 15.0374V13.7625C8.40023 13.6133 8.45949 13.4702 8.56498 13.3647C8.67047 13.2592 8.81354 13.2 8.96273 13.2H10.2377C10.3869 13.2 10.53 13.2592 10.6355 13.3647C10.7409 13.4702 10.8002 13.6133 10.8002 13.7625V15.0374C10.8002 15.1866 10.7409 15.3297 10.6355 15.4352C10.53 15.5407 10.3869 15.5999 10.2377 15.5999ZM15.0377 15.5999H13.7627C13.6135 15.5999 13.4704 15.5407 13.3649 15.4352C13.2594 15.3297 13.2002 15.1866 13.2002 15.0374V13.7625C13.2002 13.6133 13.2594 13.4702 13.3649 13.3647C13.4704 13.2592 13.6135 13.2 13.7627 13.2H15.0377C15.1868 13.2 15.3299 13.2592 15.4354 13.3647C15.5409 13.4702 15.6002 13.6133 15.6002 13.7625V15.0374C15.6002 15.1866 15.5409 15.3297 15.4354 15.4352C15.3299 15.5407 15.1868 15.5999 15.0377 15.5999ZM19.8377 15.5999H18.5627C18.4135 15.5999 18.2704 15.5407 18.165 15.4352C18.0595 15.3297 18.0002 15.1866 18.0002 15.0374V13.7625C18.0002 13.6133 18.0595 13.4702 18.165 13.3647C18.2704 13.2592 18.4135 13.2 18.5627 13.2H19.8377C19.9869 13.2 20.1299 13.2592 20.2354 13.3647C20.3409 13.4702 20.4002 13.6133 20.4002 13.7625V15.0374C20.4002 15.1866 20.3409 15.3297 20.2354 15.4352C20.1299 15.5407 19.9869 15.5999 19.8377 15.5999ZM24.6369 15.5999H23.3619C23.2127 15.5999 23.0696 15.5407 22.9641 15.4352C22.8586 15.3297 22.7994 15.1866 22.7994 15.0374V13.7625C22.7994 13.6133 22.8586 13.4702 22.9641 13.3647C23.0696 13.2592 23.2127 13.2 23.3619 13.2H24.6369C24.786 13.2 24.9291 13.2592 25.0346 13.3647C25.1401 13.4702 25.1994 13.6133 25.1994 13.7625V15.0374C25.1994 15.1866 25.1401 15.3297 25.0346 15.4352C24.9291 15.5407 24.786 15.5999 24.6369 15.5999ZM29.4369 15.5999H28.1619C28.0127 15.5999 27.8696 15.5407 27.7642 15.4352C27.6587 15.3297 27.5994 15.1866 27.5994 15.0374V13.7625C27.5994 13.6133 27.6587 13.4702 27.7642 13.3647C27.8696 13.2592 28.0127 13.2 28.1619 13.2H29.4369C29.5861 13.2 29.7291 13.2592 29.8346 13.3647C29.9401 13.4702 29.9994 13.6133 29.9994 13.7625V15.0374C29.9994 15.1866 29.9401 15.3297 29.8346 15.4352C29.7291 15.5407 29.5861 15.5999 29.4369 15.5999ZM5.43768 20.3999H4.1627C4.01352 20.3999 3.87045 20.3406 3.76496 20.2351C3.65947 20.1296 3.6002 19.9866 3.6002 19.8374V18.5624C3.6002 18.4132 3.65947 18.2701 3.76496 18.1647C3.87045 18.0592 4.01352 17.9999 4.1627 17.9999H5.43768C5.58687 17.9999 5.72994 18.0592 5.83543 18.1647C5.94092 18.2701 6.00018 18.4132 6.00018 18.5624V19.8374C6.00018 19.9866 5.94092 20.1296 5.83543 20.2351C5.72994 20.3406 5.58687 20.3999 5.43768 20.3999ZM10.2377 20.3999H8.96273C8.81354 20.3999 8.67047 20.3406 8.56498 20.2351C8.45949 20.1296 8.40023 19.9866 8.40023 19.8374V18.5624C8.40023 18.4132 8.45949 18.2701 8.56498 18.1647C8.67047 18.0592 8.81354 17.9999 8.96273 17.9999H10.2377C10.3869 17.9999 10.53 18.0592 10.6355 18.1647C10.7409 18.2701 10.8002 18.4132 10.8002 18.5624V19.8374C10.8002 19.9866 10.7409 20.1296 10.6355 20.2351C10.53 20.3406 10.3869 20.3999 10.2377 20.3999ZM15.0377 20.3999H13.7627C13.6135 20.3999 13.4704 20.3406 13.3649 20.2351C13.2594 20.1296 13.2002 19.9866 13.2002 19.8374V18.5624C13.2002 18.4132 13.2594 18.2701 13.3649 18.1647C13.4704 18.0592 13.6135 17.9999 13.7627 17.9999H15.0377C15.1868 17.9999 15.3299 18.0592 15.4354 18.1647C15.5409 18.2701 15.6002 18.4132 15.6002 18.5624V19.8374C15.6002 19.9866 15.5409 20.1296 15.4354 20.2351C15.3299 20.3406 15.1868 20.3999 15.0377 20.3999ZM20.4002 20.3999V18.5999C20.4002 18.5211 20.3847 18.4431 20.3545 18.3703C20.3244 18.2975 20.2802 18.2313 20.2245 18.1756C20.1687 18.1199 20.1026 18.0757 20.0298 18.0456C19.957 18.0154 19.879 17.9999 19.8002 17.9999H18.6002C18.4411 17.9999 18.2885 18.0631 18.1759 18.1756C18.0634 18.2882 18.0002 18.4408 18.0002 18.5999V19.7999C18.0002 19.959 18.0634 20.1116 18.1759 20.2242C18.2885 20.3367 18.4411 20.3999 18.6002 20.3999H20.4002ZM5.43768 25.1999H4.1627C4.01352 25.1999 3.87045 25.1406 3.76496 25.0352C3.65947 24.9297 3.6002 24.7866 3.6002 24.6374V23.3624C3.6002 23.2132 3.65947 23.0702 3.76496 22.9647C3.87045 22.8592 4.01352 22.7999 4.1627 22.7999H5.43768C5.58687 22.7999 5.72994 22.8592 5.83543 22.9647C5.94092 23.0702 6.00018 23.2132 6.00018 23.3624V24.6374C6.00018 24.7866 5.94092 24.9297 5.83543 25.0352C5.72994 25.1406 5.58687 25.1999 5.43768 25.1999ZM10.2377 25.1999H8.96273C8.81354 25.1999 8.67047 25.1406 8.56498 25.0352C8.45949 24.9297 8.40023 24.7866 8.40023 24.6374V23.3624C8.40023 23.2132 8.45949 23.0702 8.56498 22.9647C8.67047 22.8592 8.81354 22.7999 8.96273 22.7999H10.2377C10.3869 22.7999 10.53 22.8592 10.6355 22.9647C10.7409 23.0702 10.8002 23.2132 10.8002 23.3624V24.6374C10.8002 24.7866 10.7409 24.9297 10.6355 25.0352C10.53 25.1406 10.3869 25.1999 10.2377 25.1999ZM15.0377 25.1999H13.7627C13.6135 25.1999 13.4704 25.1406 13.3649 25.0352C13.2594 24.9297 13.2002 24.7866 13.2002 24.6374V23.3624C13.2002 23.2132 13.2594 23.0702 13.3649 22.9647C13.4704 22.8592 13.6135 22.7999 13.7627 22.7999H15.0377C15.1868 22.7999 15.3299 22.8592 15.4354 22.9647C15.5409 23.0702 15.6002 23.2132 15.6002 23.3624V24.6374C15.6002 24.7866 15.5409 24.9297 15.4354 25.0352C15.3299 25.1406 15.1868 25.1999 15.0377 25.1999Z" fill="#3C58A0"/>
<path d="M29.4199 13.2H28.1789C28.1038 13.2 28.0323 13.2147 27.9664 13.2407C28.0746 13.2833 28.1675 13.3574 28.2329 13.4535C28.2984 13.5496 28.3334 13.6631 28.3334 13.7794V15.0204C28.3334 15.2654 28.1812 15.4743 27.9664 15.5591C28.0323 15.5852 28.1038 15.5999 28.1789 15.5999H29.4199C29.5736 15.5999 29.721 15.5389 29.8297 15.4302C29.9384 15.3216 29.9994 15.1742 29.9995 15.0205V13.7795C29.9994 13.6258 29.9384 13.4784 29.8297 13.3697C29.721 13.261 29.5736 13.2 29.4199 13.2ZM24.6199 13.2H23.3789C23.3038 13.2 23.2323 13.2147 23.1664 13.2407C23.2746 13.2833 23.3674 13.3574 23.4329 13.4535C23.4983 13.5496 23.5333 13.6631 23.5334 13.7794V15.0204C23.5334 15.2654 23.3812 15.4743 23.1664 15.5591C23.2323 15.5852 23.3038 15.5999 23.3789 15.5999H24.6199C24.696 15.5999 24.7714 15.585 24.8417 15.5558C24.912 15.5267 24.9759 15.484 25.0297 15.4302C25.0835 15.3764 25.1262 15.3125 25.1553 15.2422C25.1844 15.1719 25.1994 15.0966 25.1994 15.0205V13.7795C25.1994 13.7034 25.1844 13.628 25.1553 13.5577C25.1262 13.4874 25.0835 13.4235 25.0297 13.3697C24.9759 13.3159 24.912 13.2732 24.8417 13.2441C24.7714 13.2149 24.696 13.2 24.6199 13.2ZM19.8207 13.2H18.5797C18.5046 13.2 18.4331 13.2147 18.3672 13.2407C18.582 13.3255 18.7343 13.5344 18.7343 13.7794V15.0204C18.7343 15.2654 18.582 15.4743 18.3672 15.5591C18.4331 15.5852 18.5046 15.5999 18.5797 15.5999H19.8207C19.9744 15.5999 20.1218 15.5389 20.2305 15.4302C20.3392 15.3216 20.4002 15.1742 20.4003 15.0205V13.7795C20.4002 13.6258 20.3392 13.4784 20.2305 13.3697C20.1218 13.261 19.9744 13.2 19.8207 13.2ZM15.0207 13.2H13.7797C13.7046 13.2 13.6331 13.2147 13.5672 13.2407C13.782 13.3255 13.9342 13.5344 13.9342 13.7794V15.0204C13.9342 15.2654 13.782 15.4743 13.5672 15.5591C13.6331 15.5852 13.7046 15.5999 13.7797 15.5999H15.0207C15.1744 15.5999 15.3218 15.5389 15.4305 15.4302C15.5391 15.3216 15.6002 15.1742 15.6002 15.0205V13.7795C15.6002 13.6258 15.5392 13.4784 15.4305 13.3697C15.3218 13.261 15.1744 13.2 15.0207 13.2ZM10.2207 13.2H8.97968C8.90458 13.2 8.83308 13.2147 8.76719 13.2407C8.87536 13.2833 8.96821 13.3574 9.03366 13.4535C9.09911 13.5496 9.13412 13.6631 9.13415 13.7794V15.0204C9.13415 15.2654 8.98193 15.4743 8.76719 15.5591C8.83308 15.5852 8.90458 15.5999 8.97968 15.5999H10.2207C10.3744 15.5999 10.5218 15.5389 10.6304 15.4302C10.7391 15.3216 10.8002 15.1742 10.8002 15.0205V13.7795C10.8002 13.6258 10.7392 13.4784 10.6305 13.3697C10.5218 13.261 10.3744 13.2 10.2207 13.2ZM5.42074 13.2H4.17972C4.10463 13.2 4.03312 13.2147 3.96724 13.2407C4.18204 13.3255 4.33427 13.5344 4.33427 13.7794V15.0204C4.33427 15.2654 4.18204 15.4743 3.96724 15.5591C4.03312 15.5852 4.10463 15.5999 4.17972 15.5999H5.42074C5.57442 15.5999 5.72182 15.5389 5.83049 15.4302C5.93917 15.3216 6.00024 15.1742 6.00025 15.0205V13.7795C6.00024 13.6258 5.93917 13.4784 5.8305 13.3697C5.72182 13.261 5.57443 13.2 5.42074 13.2ZM5.42074 18H4.17972C4.10463 18 4.03312 18.0147 3.96724 18.0407C4.18204 18.1255 4.33427 18.3345 4.33427 18.5794V19.8205C4.33427 20.0655 4.18204 20.2744 3.96724 20.3592C4.03312 20.3853 4.10463 20.4 4.17972 20.4H5.42074C5.57442 20.4 5.72182 20.339 5.83049 20.2303C5.93917 20.1216 6.00024 19.9743 6.00025 19.8206V18.5795C6.00024 18.4258 5.93917 18.2784 5.8305 18.1697C5.72182 18.0611 5.57443 18 5.42074 18ZM5.42074 22.8H4.17972C4.10463 22.8 4.03312 22.8148 3.96724 22.8407C4.18204 22.9255 4.33427 23.1345 4.33427 23.3794V24.6205C4.33427 24.8655 4.18204 25.0745 3.96724 25.1593C4.03312 25.1853 4.10463 25.2 4.17972 25.2H5.42074C5.57442 25.2 5.72182 25.139 5.83049 25.0303C5.93917 24.9217 6.00024 24.7743 6.00025 24.6206V23.3795C6.00024 23.2258 5.93917 23.0784 5.8305 22.9698C5.72182 22.8611 5.57443 22.8 5.42074 22.8ZM10.2207 18H8.97968C8.90458 18 8.83308 18.0147 8.76719 18.0407C8.87536 18.0833 8.96821 18.1574 9.03366 18.2535C9.09911 18.3496 9.13412 18.4632 9.13415 18.5794V19.8205C9.13415 20.0655 8.98193 20.2744 8.76719 20.3592C8.83308 20.3853 8.90458 20.4 8.97968 20.4H10.2207C10.3744 20.4 10.5218 20.339 10.6304 20.2303C10.7391 20.1216 10.8002 19.9743 10.8002 19.8206V18.5795C10.8002 18.4258 10.7392 18.2784 10.6305 18.1697C10.5218 18.061 10.3744 18 10.2207 18ZM10.2207 22.8H8.97968C8.90458 22.8 8.83308 22.8148 8.76719 22.8407C8.87536 22.8833 8.96821 22.9575 9.03366 23.0536C9.09911 23.1496 9.13412 23.2632 9.13415 23.3794V24.6205C9.13415 24.8655 8.98193 25.0745 8.76719 25.1593C8.83308 25.1853 8.90458 25.2 8.97968 25.2H10.2207C10.3744 25.2 10.5218 25.139 10.6304 25.0303C10.7391 24.9217 10.8002 24.7743 10.8002 24.6206V23.3795C10.8002 23.3034 10.7852 23.228 10.7561 23.1577C10.727 23.0874 10.6843 23.0235 10.6305 22.9697C10.5767 22.9159 10.5128 22.8732 10.4425 22.8441C10.3722 22.815 10.2968 22.8 10.2207 22.8ZM15.0207 18H13.7797C13.7046 18 13.6331 18.0147 13.5672 18.0407C13.782 18.1255 13.9342 18.3345 13.9342 18.5794V19.8205C13.9342 20.0655 13.782 20.2744 13.5672 20.3592C13.6331 20.3853 13.7046 20.4 13.7797 20.4H15.0207C15.1744 20.4 15.3218 20.339 15.4305 20.2303C15.5391 20.1216 15.6002 19.9743 15.6002 19.8206V18.5795C15.6002 18.4258 15.5392 18.2784 15.4305 18.1697C15.3218 18.0611 15.1744 18 15.0207 18ZM20.4002 20.4V18.5794C20.4002 18.5033 20.3852 18.428 20.3561 18.3577C20.3269 18.2874 20.2843 18.2235 20.2304 18.1697C20.1766 18.1159 20.1127 18.0732 20.0424 18.0441C19.9721 18.0149 19.8968 18 19.8207 18H18.5797C18.5046 18 18.4331 18.0147 18.3672 18.0407C18.582 18.1255 18.7342 18.3345 18.7342 18.5794V19.8205C18.7342 20.0655 18.582 20.2744 18.3672 20.3592C18.4331 20.3853 18.5046 20.4 18.5797 20.4H20.4002V20.4ZM15.0207 22.8H13.7797C13.7046 22.8 13.6331 22.8148 13.5672 22.8407C13.782 22.9255 13.9342 23.1345 13.9342 23.3794V24.6205C13.9342 24.8655 13.782 25.0745 13.5672 25.1593C13.6331 25.1853 13.7046 25.2 13.7797 25.2H15.0207C15.1744 25.2 15.3218 25.139 15.4305 25.0303C15.5391 24.9217 15.6002 24.7743 15.6002 24.6206V23.3795C15.6002 23.3034 15.5852 23.2281 15.5561 23.1577C15.527 23.0874 15.4843 23.0235 15.4305 22.9697C15.3767 22.9159 15.3128 22.8732 15.2425 22.8441C15.1722 22.815 15.0968 22.8 15.0207 22.8Z" fill="#2A428C"/>
<path d="M30.7346 10.1055V27.6001H32.4018V10.8001L30.7346 10.1055Z" fill="#D3DCFB"/>
<path d="M32.4018 10.8001V4.80005C32.4018 3.47459 31.3272 2.40015 30.0019 2.40015H3.59937C2.27391 2.40015 1.19946 3.47459 1.19946 4.80005V10.8001H32.4018Z" fill="#FF4155"/>
<path d="M8.76157 5.3433H7.19944C7.05536 5.3433 6.91719 5.28607 6.81531 5.1842C6.71344 5.08232 6.6562 4.94414 6.6562 4.80007C6.6562 4.656 6.71344 4.51782 6.81531 4.41595C6.91719 4.31407 7.05536 4.25684 7.19944 4.25684H8.76157C8.90565 4.25684 9.04382 4.31407 9.1457 4.41595C9.24757 4.51782 9.30481 4.656 9.30481 4.80007C9.30481 4.94414 9.24757 5.08232 9.1457 5.1842C9.04382 5.28607 8.90565 5.3433 8.76157 5.3433ZM12.5994 5.3433H11.0372C10.8932 5.3433 10.755 5.28607 10.6531 5.1842C10.5512 5.08232 10.494 4.94414 10.494 4.80007C10.494 4.656 10.5512 4.51782 10.6531 4.41595C10.755 4.31407 10.8932 4.25684 11.0372 4.25684H12.5994C12.8995 4.25684 13.1426 4.50005 13.1426 4.80007C13.1426 5.10009 12.8995 5.3433 12.5994 5.3433ZM22.5624 5.3433H21.0002C20.8561 5.3433 20.7179 5.28607 20.616 5.1842C20.5142 5.08232 20.4569 4.94414 20.4569 4.80007C20.4569 4.656 20.5142 4.51782 20.616 4.41595C20.7179 4.31407 20.8561 4.25684 21.0002 4.25684H22.5624C22.8625 4.25684 23.1056 4.50005 23.1056 4.80007C23.1056 5.10009 22.8625 5.3433 22.5624 5.3433ZM26.4002 5.3433H24.838C24.694 5.3433 24.5558 5.28607 24.4539 5.1842C24.352 5.08232 24.2948 4.94414 24.2948 4.80007C24.2948 4.656 24.352 4.51782 24.4539 4.41595C24.5558 4.31407 24.694 4.25684 24.838 4.25684H26.4002C26.5443 4.25684 26.6825 4.31407 26.7844 4.41595C26.8862 4.51782 26.9435 4.656 26.9435 4.80007C26.9435 4.94414 26.8862 5.08232 26.7844 5.1842C26.6825 5.28607 26.5443 5.3433 26.4002 5.3433Z" fill="#E80054"/>
<path d="M11.3994 4.5C11.3994 5.32842 10.7279 5.99998 9.89944 5.99998C9.07102 5.99998 8.39946 5.32842 8.39946 4.5V1.49998C8.39939 0.671555 9.07094 0 9.89937 0C10.7278 0 11.3993 0.671555 11.3993 1.49998V4.5H11.3994ZM25.2002 4.5C25.2002 5.32842 24.5287 5.99998 23.7002 5.99998C22.8718 5.99998 22.2002 5.32842 22.2002 4.5V1.49998C22.2002 0.671555 22.8717 0 23.7002 0C24.5286 0 25.2001 0.671555 25.2001 1.49998V4.5H25.2002Z" fill="#EBF5FC"/>
<path d="M23.7002 0C23.3922 0 23.1062 0.0930938 22.8679 0.252281C23.2705 0.521297 23.5358 0.979523 23.5358 1.50005V4.5C23.5358 5.02045 23.2705 5.47875 22.8679 5.74777C23.1142 5.91258 23.4039 6.0004 23.7002 6.00005C24.5286 6.00005 25.2001 5.32849 25.2001 4.50007V1.49998C25.2002 0.671555 24.5286 0 23.7002 0ZM9.89936 0C9.59139 0 9.30536 0.0930938 9.06714 0.252281C9.46968 0.521297 9.73497 0.979523 9.73497 1.50005V4.5C9.73497 5.02045 9.46968 5.47875 9.06714 5.74777C9.31336 5.91258 9.60306 6.0004 9.89936 6.00005C10.7278 6.00005 11.3993 5.32849 11.3993 4.50007V1.49998C11.3994 0.671555 10.7278 0 9.89936 0Z" fill="#D3DCFB"/>
<path d="M30.0019 2.3999H28.3352C29.6607 2.3999 30.7351 3.47435 30.7351 4.79981V10.7999H32.4017V4.79988C32.4018 3.47442 31.3272 2.3999 30.0019 2.3999Z" fill="#E80054"/>
<path d="M1.19939 7.85669H32.4018V8.94323H1.19939V7.85669Z" fill="#E80054"/>
<path d="M25.8006 36C30.7712 36 34.8006 31.9706 34.8006 27C34.8006 22.0294 30.7712 18 25.8006 18C20.83 18 16.8006 22.0294 16.8006 27C16.8006 31.9706 20.83 36 25.8006 36Z" fill="#4FABF7"/>
<path d="M25.8006 33.5999C29.4457 33.5999 32.4006 30.645 32.4006 26.9999C32.4006 23.3548 29.4457 20.3999 25.8006 20.3999C22.1555 20.3999 19.2006 23.3548 19.2006 26.9999C19.2006 30.645 22.1555 33.5999 25.8006 33.5999Z" fill="#EBF5FC"/>
<path d="M25.8006 26.3433C25.7293 26.3433 25.6586 26.3293 25.5927 26.302C25.5268 26.2747 25.4669 26.2347 25.4165 26.1842C25.366 26.1338 25.326 26.0739 25.2987 26.008C25.2714 25.9421 25.2574 25.8714 25.2574 25.8001V22.8001C25.2574 22.656 25.3146 22.5178 25.4165 22.4159C25.5184 22.3141 25.6565 22.2568 25.8006 22.2568C25.9447 22.2568 26.0829 22.3141 26.1847 22.4159C26.2866 22.5178 26.3438 22.656 26.3438 22.8001V25.8001C26.3438 25.9442 26.2866 26.0823 26.1847 26.1842C26.0829 26.2861 25.9447 26.3433 25.8006 26.3433ZM28.8006 27.5434H27.0006C26.8565 27.5434 26.7183 27.4861 26.6164 27.3842C26.5146 27.2824 26.4573 27.1442 26.4573 27.0001C26.4573 26.856 26.5146 26.7179 26.6164 26.616C26.7183 26.5141 26.8565 26.4569 27.0006 26.4569H28.8006C28.9447 26.4569 29.0829 26.5141 29.1848 26.616C29.2866 26.7179 29.3439 26.856 29.3439 27.0001C29.3439 27.1442 29.2866 27.2824 29.1848 27.3842C29.0829 27.4861 28.9447 27.5434 28.8006 27.5434Z" fill="#3C58A0"/>
<path d="M25.8006 18C25.5197 18 25.242 18.0136 24.9676 18.0387C29.5476 18.4591 33.1346 22.3104 33.1346 27C33.1346 31.6896 29.5475 35.5409 24.9675 35.9613C25.2419 35.9864 25.5196 36 25.8005 36C30.7711 36 34.8005 31.9705 34.8005 27C34.8005 22.0295 30.7711 18 25.8006 18Z" fill="#1886EA"/>
<path d="M25.8006 20.3999C25.5186 20.3999 25.2408 20.4177 24.9682 20.452C28.2203 20.8613 30.7358 23.6368 30.7358 26.9999C30.7358 30.363 28.2203 33.1386 24.9682 33.5478C25.2408 33.5822 25.5186 33.5999 25.8006 33.5999C29.4457 33.5999 32.4006 30.645 32.4006 26.9999C32.4006 23.3549 29.4457 20.3999 25.8006 20.3999Z" fill="#D3DCFB"/>
<path d="M25.8006 28.2001C26.4634 28.2001 27.0006 27.6628 27.0006 27.0001C27.0006 26.3373 26.4634 25.8 25.8006 25.8C25.1379 25.8 24.6006 26.3373 24.6006 27.0001C24.6006 27.6628 25.1379 28.2001 25.8006 28.2001Z" fill="#FFDD40"/>
</svg>
