<svg width="88" height="88" viewBox="0 0 88 88" fill="none" xmlns="http://www.w3.org/2000/svg">
<g filter="url(#filter0_dd_60_70)">
<rect x="12" y="2" width="64" height="64" rx="16" fill="url(#paint0_linear_60_70)"/>
<path d="M49.3333 46V43.3333C49.3333 41.9188 48.7714 40.5623 47.7712 39.5621C46.771 38.5619 45.4145 38 44 38H36C34.5855 38 33.2289 38.5619 32.2288 39.5621C31.2286 40.5623 30.6667 41.9188 30.6667 43.3333V46" stroke="white" stroke-width="2.66667" stroke-linecap="round" stroke-linejoin="round"/>
<path d="M40 32.6667C42.9455 32.6667 45.3333 30.2789 45.3333 27.3333C45.3333 24.3878 42.9455 22 40 22C37.0545 22 34.6667 24.3878 34.6667 27.3333C34.6667 30.2789 37.0545 32.6667 40 32.6667Z" stroke="white" stroke-width="2.66667" stroke-linecap="round" stroke-linejoin="round"/>
<path d="M49.3333 32.6667L52 35.3333L57.3333 30" stroke="white" stroke-width="2.66667" stroke-linecap="round" stroke-linejoin="round"/>
</g>
<defs>
<filter id="filter0_dd_60_70" x="0" y="0" width="88" height="88" filterUnits="userSpaceOnUse" color-interpolation-filters="sRGB">
<feFlood flood-opacity="0" result="BackgroundImageFix"/>
<feColorMatrix in="SourceAlpha" type="matrix" values="0 0 0 0 0 0 0 0 0 0 0 0 0 0 0 0 0 0 127 0" result="hardAlpha"/>
<feMorphology radius="4" operator="erode" in="SourceAlpha" result="effect1_dropShadow_60_70"/>
<feOffset dy="4"/>
<feGaussianBlur stdDeviation="3"/>
<feComposite in2="hardAlpha" operator="out"/>
<feColorMatrix type="matrix" values="0 0 0 0 0 0 0 0 0 0 0 0 0 0 0 0 0 0 0.1 0"/>
<feBlend mode="normal" in2="BackgroundImageFix" result="effect1_dropShadow_60_70"/>
<feColorMatrix in="SourceAlpha" type="matrix" values="0 0 0 0 0 0 0 0 0 0 0 0 0 0 0 0 0 0 127 0" result="hardAlpha"/>
<feMorphology radius="3" operator="erode" in="SourceAlpha" result="effect2_dropShadow_60_70"/>
<feOffset dy="10"/>
<feGaussianBlur stdDeviation="7.5"/>
<feComposite in2="hardAlpha" operator="out"/>
<feColorMatrix type="matrix" values="0 0 0 0 0 0 0 0 0 0 0 0 0 0 0 0 0 0 0.1 0"/>
<feBlend mode="normal" in2="effect1_dropShadow_60_70" result="effect2_dropShadow_60_70"/>
<feBlend mode="normal" in="SourceGraphic" in2="effect2_dropShadow_60_70" result="shape"/>
</filter>
<linearGradient id="paint0_linear_60_70" x1="12" y1="2" x2="76" y2="66" gradientUnits="userSpaceOnUse">
<stop stop-color="#C084FC"/>
<stop offset="1" stop-color="#9333EA"/>
</linearGradient>
</defs>
</svg>
