<svg width="88" height="88" viewBox="0 0 88 88" fill="none" xmlns="http://www.w3.org/2000/svg">
<g filter="url(#filter0_dd_60_305)">
<rect x="12" y="2" width="64" height="64" rx="16" fill="url(#paint0_linear_60_305)"/>
<path d="M48 20.6665H36C35.2928 20.6665 34.6145 20.9475 34.1144 21.4476C33.6143 21.9476 33.3333 22.6259 33.3333 23.3332V44.6665C33.3333 45.3737 33.6143 46.052 34.1144 46.5521C34.6145 47.0522 35.2928 47.3332 36 47.3332H52C52.7073 47.3332 53.3855 47.0522 53.8856 46.5521C54.3857 46.052 54.6667 45.3737 54.6667 44.6665V27.3332L48 20.6665Z" stroke="white" stroke-width="2.66667" stroke-linecap="round" stroke-linejoin="round"/>
<path d="M46.6667 20.6665V25.9998C46.6667 26.7071 46.9476 27.3854 47.4477 27.8855C47.9478 28.3856 48.6261 28.6665 49.3333 28.6665H54.6667" stroke="white" stroke-width="2.66667" stroke-linecap="round" stroke-linejoin="round"/>
<path d="M41.3333 30H38.6667" stroke="white" stroke-width="2.66667" stroke-linecap="round" stroke-linejoin="round"/>
<path d="M49.3333 35.3335H38.6667" stroke="white" stroke-width="2.66667" stroke-linecap="round" stroke-linejoin="round"/>
<path d="M49.3333 40.6665H38.6667" stroke="white" stroke-width="2.66667" stroke-linecap="round" stroke-linejoin="round"/>
</g>
<defs>
<filter id="filter0_dd_60_305" x="0" y="0" width="88" height="88" filterUnits="userSpaceOnUse" color-interpolation-filters="sRGB">
<feFlood flood-opacity="0" result="BackgroundImageFix"/>
<feColorMatrix in="SourceAlpha" type="matrix" values="0 0 0 0 0 0 0 0 0 0 0 0 0 0 0 0 0 0 127 0" result="hardAlpha"/>
<feMorphology radius="4" operator="erode" in="SourceAlpha" result="effect1_dropShadow_60_305"/>
<feOffset dy="4"/>
<feGaussianBlur stdDeviation="3"/>
<feComposite in2="hardAlpha" operator="out"/>
<feColorMatrix type="matrix" values="0 0 0 0 0 0 0 0 0 0 0 0 0 0 0 0 0 0 0.1 0"/>
<feBlend mode="normal" in2="BackgroundImageFix" result="effect1_dropShadow_60_305"/>
<feColorMatrix in="SourceAlpha" type="matrix" values="0 0 0 0 0 0 0 0 0 0 0 0 0 0 0 0 0 0 127 0" result="hardAlpha"/>
<feMorphology radius="3" operator="erode" in="SourceAlpha" result="effect2_dropShadow_60_305"/>
<feOffset dy="10"/>
<feGaussianBlur stdDeviation="7.5"/>
<feComposite in2="hardAlpha" operator="out"/>
<feColorMatrix type="matrix" values="0 0 0 0 0 0 0 0 0 0 0 0 0 0 0 0 0 0 0.1 0"/>
<feBlend mode="normal" in2="effect1_dropShadow_60_305" result="effect2_dropShadow_60_305"/>
<feBlend mode="normal" in="SourceGraphic" in2="effect2_dropShadow_60_305" result="shape"/>
</filter>
<linearGradient id="paint0_linear_60_305" x1="12" y1="2" x2="76" y2="66" gradientUnits="userSpaceOnUse">
<stop stop-color="#34D399"/>
<stop offset="1" stop-color="#059669"/>
</linearGradient>
</defs>
</svg>
