<svg width="33" height="33" viewBox="0 0 33 33" fill="none" xmlns="http://www.w3.org/2000/svg">
<path d="M23.6039 10.829C23.5065 10.829 23.4113 10.8002 23.3303 10.746C23.2762 10.7101 23.2298 10.6638 23.1936 10.6098C23.1574 10.5559 23.1322 10.4954 23.1194 10.4317C23.1066 10.368 23.1065 10.3024 23.1191 10.2387C23.1316 10.175 23.1566 10.1144 23.1926 10.0603L28.5341 2.03456C28.57 1.98048 28.6163 1.93402 28.6703 1.89782C28.7242 1.86163 28.7847 1.83643 28.8484 1.82364C28.9121 1.81085 28.9777 1.81074 29.0414 1.8233C29.1052 1.83587 29.1658 1.86087 29.2198 1.89687C29.2739 1.93285 29.3204 1.97913 29.3566 2.03306C29.3927 2.08699 29.4179 2.14753 29.4307 2.21121C29.4435 2.27488 29.4436 2.34045 29.4311 2.40418C29.4185 2.4679 29.3935 2.52852 29.3575 2.58258L24.0161 10.6083C23.9709 10.6763 23.9096 10.732 23.8377 10.7705C23.7658 10.809 23.6854 10.8291 23.6039 10.829ZM22.147 11.2122C22.0702 11.2122 21.9945 11.1942 21.9259 11.1597L17.338 8.8618C17.2799 8.83272 17.2281 8.79249 17.1856 8.7434C17.1431 8.69431 17.1106 8.63732 17.0901 8.57568C17.0696 8.51405 17.0615 8.44899 17.0661 8.3842C17.0708 8.31942 17.0881 8.25618 17.1172 8.19811C17.1463 8.14003 17.1865 8.08824 17.2356 8.0457C17.2847 8.00317 17.3417 7.97073 17.4034 7.95023C17.465 7.92973 17.5301 7.92158 17.5949 7.92624C17.6597 7.9309 17.7229 7.94828 17.781 7.97738L22.369 10.2753C22.427 10.3043 22.4788 10.3446 22.5213 10.3937C22.5639 10.4428 22.5963 10.4998 22.6168 10.5614C22.6373 10.623 22.6455 10.6881 22.6408 10.7529C22.6362 10.8176 22.6188 10.8809 22.5897 10.939C22.5486 11.0211 22.4853 11.0902 22.4072 11.1385C22.329 11.1867 22.2389 11.2122 22.147 11.2122ZM11.0101 14.083C10.9123 14.0831 10.8167 14.0541 10.7354 13.9998C10.654 13.9455 10.5906 13.8683 10.5532 13.778C10.5157 13.6876 10.5059 13.5882 10.5249 13.4923C10.5439 13.3964 10.5909 13.3082 10.66 13.239L15.4288 8.46206C15.4747 8.41608 15.5292 8.3796 15.5892 8.35469C15.6492 8.32978 15.7135 8.31693 15.7784 8.31687C15.8434 8.31682 15.9077 8.32956 15.9677 8.35437C16.0278 8.37918 16.0823 8.41557 16.1283 8.46147C16.1742 8.50736 16.2107 8.56185 16.2356 8.62183C16.2605 8.68181 16.2734 8.74611 16.2734 8.81106C16.2735 8.87601 16.2607 8.94033 16.2359 9.00036C16.2111 9.06038 16.1747 9.11493 16.1289 9.16089L11.3601 13.9379C11.3142 13.984 11.2596 14.0205 11.1996 14.0454C11.1395 14.0704 11.0751 14.0831 11.0101 14.083ZM4.9618 17.5263C4.87074 17.5264 4.78143 17.5013 4.70371 17.4538C4.626 17.4064 4.5629 17.3384 4.52138 17.2573C4.49172 17.1996 4.47374 17.1365 4.46846 17.0718C4.46318 17.007 4.47071 16.9419 4.49061 16.88C4.51051 16.8182 4.54239 16.7609 4.58444 16.7114C4.62649 16.6619 4.67788 16.6212 4.73568 16.5915L8.84891 14.4813C8.90669 14.4516 8.96975 14.4337 9.03448 14.4284C9.09921 14.4231 9.16435 14.4306 9.22617 14.4505C9.288 14.4704 9.3453 14.5023 9.3948 14.5443C9.4443 14.5864 9.48504 14.6377 9.51468 14.6955C9.54433 14.7533 9.56231 14.8164 9.56759 14.8811C9.57287 14.9459 9.56535 15.011 9.54545 15.0728C9.52555 15.1347 9.49366 15.192 9.45161 15.2415C9.40957 15.291 9.35818 15.3317 9.30038 15.3614L5.18714 17.4716C5.11747 17.5075 5.0402 17.5263 4.9618 17.5263Z" fill="#B1DBFC"/>
<path d="M3.80213 19.1248C4.64676 19.1248 5.33146 18.4401 5.33146 17.5955C5.33146 16.7509 4.64676 16.0662 3.80213 16.0662C2.95751 16.0662 2.27281 16.7509 2.27281 17.5955C2.27281 18.4401 2.95751 19.1248 3.80213 19.1248Z" fill="#FF656F"/>
<path d="M10.2176 15.9117C11.0623 15.9117 11.747 15.227 11.747 14.3824C11.747 13.5377 11.0623 12.853 10.2176 12.853C9.37301 12.853 8.68831 13.5377 8.68831 14.3824C8.68831 15.227 9.37301 15.9117 10.2176 15.9117Z" fill="#FFA85D"/>
<path d="M16.6333 9.48516C17.4779 9.48516 18.1626 8.80046 18.1626 7.95584C18.1626 7.11121 17.4779 6.42651 16.6333 6.42651C15.7886 6.42651 15.1039 7.11121 15.1039 7.95584C15.1039 8.80046 15.7886 9.48516 16.6333 9.48516Z" fill="#FEE55A"/>
<path d="M23.0489 12.6983C23.8935 12.6983 24.5782 12.0136 24.5782 11.169C24.5782 10.3243 23.8935 9.63965 23.0489 9.63965C22.2043 9.63965 21.5196 10.3243 21.5196 11.169C21.5196 12.0136 22.2043 12.6983 23.0489 12.6983Z" fill="#43CB8E"/>
<path d="M29.4644 3.05865C30.309 3.05865 30.9937 2.37394 30.9937 1.52932C30.9937 0.684701 30.309 0 29.4644 0C28.6198 0 27.9351 0.684701 27.9351 1.52932C27.9351 2.37394 28.6198 3.05865 29.4644 3.05865Z" fill="#23A8FE"/>
<path d="M3.9434 17.5953C3.9434 17.059 4.21968 16.5875 4.63743 16.3145C4.38919 16.1519 4.09884 16.0655 3.80213 16.0659C2.95749 16.0659 2.27281 16.7506 2.27281 17.5952C2.27281 18.4399 2.95755 19.1246 3.80213 19.1246C4.11046 19.1246 4.39727 19.033 4.63743 18.876C4.21962 18.6031 3.9434 18.1316 3.9434 17.5953Z" fill="#FF4756"/>
<path d="M10.3589 14.3824C10.3589 13.8461 10.6352 13.3746 11.0529 13.1016C10.8047 12.939 10.5143 12.8527 10.2176 12.853C9.37298 12.853 8.68831 13.5377 8.68831 14.3824C8.68831 15.227 9.37298 15.9117 10.2176 15.9117C10.526 15.9117 10.8128 15.8201 11.0529 15.6631C10.6352 15.3902 10.3589 14.9187 10.3589 14.3824Z" fill="#FF9839"/>
<path d="M16.7745 7.9559C16.7745 7.41957 17.0508 6.94809 17.4686 6.67506C17.2203 6.51253 16.93 6.42614 16.6333 6.42651C15.7886 6.42651 15.1039 7.11119 15.1039 7.95584C15.1039 8.80049 15.7887 9.48516 16.6333 9.48516C16.9416 9.48516 17.2284 9.39361 17.4686 9.23662C17.0508 8.96371 16.7745 8.49217 16.7745 7.9559Z" fill="#FFD301"/>
<path d="M23.1901 11.169C23.1901 10.6327 23.4664 10.1612 23.8842 9.88819C23.6359 9.72566 23.3456 9.63927 23.0489 9.63965C22.2042 9.63965 21.5196 10.3243 21.5196 11.169C21.5196 12.0136 22.2043 12.6983 23.0489 12.6983C23.3572 12.6983 23.644 12.6067 23.8842 12.4498C23.4664 12.1768 23.1901 11.7053 23.1901 11.169Z" fill="#00BA66"/>
<path d="M29.6056 1.52932C29.6056 0.992995 29.8819 0.521515 30.2997 0.248477C30.0514 0.0860019 29.7611 -0.000364767 29.4644 1.15798e-06C28.6197 1.15798e-06 27.9351 0.684675 27.9351 1.52932C27.9351 2.37397 28.6198 3.05865 29.4644 3.05865C29.7727 3.05865 30.0595 2.96709 30.2997 2.81011C29.8819 2.53713 29.6056 2.06565 29.6056 1.52932Z" fill="#0193FA"/>
<path d="M5.45616 23.2563H2.14813C2.03844 23.2563 1.93324 23.2999 1.85568 23.3775C1.77812 23.455 1.73454 23.5602 1.73454 23.6699V32.7742H5.86981V23.67C5.86977 23.5603 5.82618 23.4551 5.74862 23.3775C5.67105 23.3 5.56586 23.2564 5.45616 23.2563Z" fill="#FF656F"/>
<path d="M11.8717 20.043H8.56362C8.45394 20.043 8.34874 20.0865 8.27118 20.1641C8.19361 20.2417 8.15004 20.3469 8.15004 20.4566V32.774H12.2853V20.4566C12.2853 20.3469 12.2417 20.2417 12.1642 20.1641C12.0866 20.0865 11.9814 20.043 11.8717 20.043Z" fill="#FFA85D"/>
<path d="M18.2873 13.5886H14.9793C14.9249 13.5886 14.8712 13.5993 14.821 13.6201C14.7708 13.6409 14.7252 13.6714 14.6868 13.7098C14.6484 13.7482 14.6179 13.7938 14.5972 13.8439C14.5764 13.8941 14.5657 13.9479 14.5657 14.0022V32.7742H18.7009V14.0022C18.7009 13.8925 18.6573 13.7873 18.5797 13.7098C18.5022 13.6322 18.397 13.5886 18.2873 13.5886Z" fill="#FEE55A"/>
<path d="M24.7029 16.8298H21.3949C21.2852 16.8298 21.18 16.8734 21.1024 16.951C21.0249 17.0285 20.9813 17.1337 20.9813 17.2434V32.7741H25.1166V17.2434C25.1165 17.1337 25.0729 17.0285 24.9954 16.951C24.9178 16.8734 24.8126 16.8299 24.7029 16.8298Z" fill="#43CB8E"/>
<path d="M31.1184 7.14478H27.8104C27.7007 7.14478 27.5955 7.18835 27.5179 7.26591C27.4404 7.34347 27.3968 7.44867 27.3968 7.55836V32.774H31.5321V7.55843C31.5321 7.44872 31.4885 7.3435 31.4109 7.26593C31.3333 7.18836 31.2281 7.14478 31.1184 7.14478Z" fill="#23A8FE"/>
<path d="M4.68948 23.2563H2.14813C2.09382 23.2563 2.04003 23.267 1.98986 23.2878C1.93968 23.3086 1.89408 23.3391 1.85568 23.3775C1.81727 23.4159 1.78681 23.4615 1.76603 23.5117C1.74524 23.5618 1.73454 23.6156 1.73454 23.6699V32.7742H4.27596V23.67C4.27595 23.6157 4.28664 23.5619 4.30742 23.5117C4.3282 23.4615 4.35865 23.4159 4.39705 23.3775C4.43545 23.3391 4.48104 23.3086 4.53122 23.2879C4.58139 23.2671 4.63517 23.2564 4.68948 23.2563Z" fill="#FF4756"/>
<path d="M11.105 20.043H8.56362C8.45394 20.043 8.34874 20.0865 8.27118 20.1641C8.19361 20.2417 8.15004 20.3469 8.15004 20.4566V32.774H10.6915V20.4566C10.6915 20.4023 10.7021 20.3485 10.7229 20.2983C10.7437 20.2481 10.7742 20.2025 10.8126 20.1641C10.851 20.1257 10.8966 20.0952 10.9468 20.0745C10.9969 20.0537 11.0507 20.043 11.105 20.043Z" fill="#FF9839"/>
<path d="M17.5207 13.5886H14.9793C14.9249 13.5886 14.8712 13.5993 14.821 13.6201C14.7708 13.6409 14.7252 13.6714 14.6868 13.7098C14.6484 13.7482 14.6179 13.7938 14.5972 13.8439C14.5764 13.8941 14.5657 13.9479 14.5657 14.0022V32.7742H17.1071V14.0022C17.1071 13.9479 17.1178 13.8941 17.1386 13.8439C17.1593 13.7937 17.1898 13.7481 17.2282 13.7097C17.2666 13.6713 17.3122 13.6409 17.3624 13.6201C17.4126 13.5993 17.4664 13.5886 17.5207 13.5886Z" fill="#FFD301"/>
<path d="M23.9362 16.8298H21.3949C21.2852 16.8298 21.18 16.8734 21.1024 16.951C21.0249 17.0285 20.9813 17.1337 20.9813 17.2434V32.7741H23.5227V17.2434C23.5227 17.1891 23.5334 17.1353 23.5542 17.0852C23.5749 17.035 23.6054 16.9894 23.6438 16.951C23.6822 16.9126 23.7278 16.8821 23.778 16.8613C23.8281 16.8405 23.8819 16.8298 23.9362 16.8298Z" fill="#00BA66"/>
<path d="M30.3518 7.14478H27.8104C27.7007 7.14478 27.5955 7.18835 27.5179 7.26591C27.4404 7.34347 27.3968 7.44867 27.3968 7.55836V32.774H29.9382V7.55843C29.9382 7.44873 29.9818 7.34353 30.0593 7.26595C30.1369 7.18838 30.2421 7.14479 30.3518 7.14478Z" fill="#0193FA"/>
<path d="M32.6387 33.2687H0.627818C0.35465 33.2687 0.13327 33.0473 0.13327 32.7741C0.13327 32.5009 0.354715 32.2795 0.627818 32.2795H32.6387C32.9119 32.2795 33.1333 32.5009 33.1333 32.7741C33.1333 33.0473 32.9119 33.2687 32.6387 33.2687Z" fill="#23A8FE"/>
</svg>
