<svg width="19" height="19" viewBox="0 0 19 19" fill="none" xmlns="http://www.w3.org/2000/svg">
<path d="M10.5413 0.773438C11.5461 0.776117 12.056 0.781476 12.4963 0.793979L12.6696 0.800231C12.8697 0.807376 13.067 0.816307 13.3055 0.827024C14.2558 0.87168 14.9042 1.02172 15.4731 1.24232C16.0626 1.46917 16.5591 1.77641 17.0557 2.27209C17.51 2.7184 17.8615 3.25851 18.0855 3.85469C18.3061 4.4236 18.4561 5.072 18.5008 6.02317C18.5115 6.26074 18.5204 6.45812 18.5275 6.65907L18.5329 6.83233C18.5463 7.27175 18.5517 7.78171 18.5535 8.78647L18.5543 9.45273V10.6227C18.5565 11.2742 18.5497 11.9256 18.5338 12.5768L18.5284 12.7501C18.5213 12.9511 18.5124 13.1484 18.5016 13.386C18.457 14.3372 18.3052 14.9847 18.0855 15.5545C17.8615 16.1507 17.51 16.6908 17.0557 17.1371C16.6094 17.5914 16.0693 17.9429 15.4731 18.1669C14.9042 18.3875 14.2558 18.5375 13.3055 18.5822L12.6696 18.6089L12.4963 18.6143C12.056 18.6268 11.5461 18.6331 10.5413 18.6349L9.87505 18.6357H8.70596C8.05422 18.638 7.40248 18.6312 6.75093 18.6152L6.57767 18.6098C6.36565 18.6018 6.15368 18.5926 5.94177 18.5822C4.99149 18.5375 4.34309 18.3875 3.77328 18.1669C3.17742 17.9427 2.63764 17.5913 2.19158 17.1371C1.73693 16.6909 1.38519 16.1508 1.16092 15.5545C0.940323 14.9856 0.790279 14.3372 0.745623 13.386L0.71883 12.7501L0.714364 12.5768C0.697901 11.9256 0.690457 11.2742 0.692036 10.6227V8.78647C0.689564 8.13503 0.696114 7.48359 0.711685 6.83233L0.717937 6.65907C0.725082 6.45812 0.734013 6.26074 0.74473 6.02317C0.789386 5.072 0.939429 4.42449 1.16003 3.85469C1.38482 3.25826 1.73718 2.71814 2.19247 2.27209C2.63827 1.81798 3.17774 1.46656 3.77328 1.24232C4.34309 1.02172 4.9906 0.87168 5.94177 0.827024C6.17934 0.816307 6.37761 0.807376 6.57767 0.800231L6.75093 0.794872C7.40218 0.779004 8.05363 0.772156 8.70507 0.774331L10.5413 0.773438ZM9.62319 5.23901C8.43885 5.23901 7.30301 5.70949 6.46555 6.54695C5.62809 7.38441 5.15761 8.52025 5.15761 9.70459C5.15761 10.8889 5.62809 12.0248 6.46555 12.8622C7.30301 13.6997 8.43885 14.1702 9.62319 14.1702C10.8075 14.1702 11.9434 13.6997 12.7808 12.8622C13.6183 12.0248 14.0888 10.8889 14.0888 9.70459C14.0888 8.52025 13.6183 7.38441 12.7808 6.54695C11.9434 5.70949 10.8075 5.23901 9.62319 5.23901ZM9.62319 7.02524C9.97505 7.02519 10.3235 7.09443 10.6486 7.22903C10.9737 7.36362 11.2691 7.56093 11.5179 7.80969C11.7667 8.05845 11.9642 8.35379 12.0989 8.67884C12.2336 9.00389 12.3029 9.35229 12.303 9.70414C12.303 10.056 12.2338 10.4044 12.0992 10.7295C11.9646 11.0546 11.7673 11.35 11.5185 11.5989C11.2698 11.8477 10.9744 12.0451 10.6494 12.1798C10.3243 12.3145 9.97594 12.3839 9.62408 12.3839C8.91348 12.3839 8.23197 12.1017 7.7295 11.5992C7.22702 11.0967 6.94474 10.4152 6.94474 9.70459C6.94474 8.99398 7.22702 8.31248 7.7295 7.81001C8.23197 7.30753 8.91348 7.02524 9.62408 7.02524M14.3129 3.89934C14.0169 3.89934 13.7329 4.01696 13.5235 4.22633C13.3142 4.43569 13.1965 4.71965 13.1965 5.01574C13.1965 5.31182 13.3142 5.59578 13.5235 5.80515C13.7329 6.01451 14.0169 6.13213 14.3129 6.13213C14.609 6.13213 14.893 6.01451 15.1023 5.80515C15.3117 5.59578 15.4293 5.31182 15.4293 5.01574C15.4293 4.71965 15.3117 4.43569 15.1023 4.22633C14.893 4.01696 14.609 3.89934 14.3129 3.89934Z" fill="white"/>
</svg>
