<svg width="17" height="17" viewBox="0 0 17 17" fill="none" xmlns="http://www.w3.org/2000/svg">
<path d="M14.3823 0.666992C14.856 0.666992 15.3104 0.855184 15.6453 1.19017C15.9803 1.52515 16.1685 1.97949 16.1685 2.45322V14.9568C16.1685 15.4306 15.9803 15.8849 15.6453 16.2199C15.3104 16.5549 14.856 16.7431 14.3823 16.7431H1.87867C1.40493 16.7431 0.950596 16.5549 0.615613 16.2199C0.280629 15.8849 0.0924377 15.4306 0.0924377 14.9568V2.45322C0.0924377 1.97949 0.280629 1.52515 0.615613 1.19017C0.950596 0.855184 1.40493 0.666992 1.87867 0.666992H14.3823ZM13.9357 14.5103V9.77677C13.9357 9.00458 13.629 8.26401 13.083 7.71799C12.5369 7.17196 11.7964 6.86521 11.0242 6.86521C10.265 6.86521 9.38084 7.32963 8.95214 8.02626V7.0349H6.46035V14.5103H8.95214V10.1072C8.95214 9.41952 9.50587 8.85686 10.1936 8.85686C10.5252 8.85686 10.8432 8.98859 11.0777 9.22308C11.3122 9.45757 11.4439 9.7756 11.4439 10.1072V14.5103H13.9357ZM3.55773 5.63271C3.95567 5.63271 4.33731 5.47463 4.61869 5.19325C4.90008 4.91186 5.05816 4.53022 5.05816 4.13228C5.05816 3.30168 4.38832 2.62291 3.55773 2.62291C3.15742 2.62291 2.7735 2.78194 2.49044 3.065C2.20738 3.34806 2.04836 3.73197 2.04836 4.13228C2.04836 4.96288 2.72713 5.63271 3.55773 5.63271ZM4.79916 14.5103V7.0349H2.32523V14.5103H4.79916Z" fill="white"/>
</svg>
