<svg width="31" height="31" viewBox="0 0 31 31" fill="none" xmlns="http://www.w3.org/2000/svg">
<g clip-path="url(#clip0_96_183)">
<path d="M20.6081 9.93776C26.2685 9.8513 30.8885 14.3064 30.9981 19.9664C31.0142 20.7974 30.9311 21.6062 30.76 22.3821C30.4702 23.6958 30.2979 25.0326 30.2979 26.3779V28.9782C30.2979 29.3766 29.975 29.6996 29.5766 29.6996H26.9762C25.6309 29.6996 24.2941 29.8719 22.9804 30.1616C22.2046 30.3327 21.3958 30.4158 20.5648 30.3997C14.9049 30.2902 10.4498 25.6703 10.5361 20.01C10.6203 14.4851 15.0832 10.0222 20.6081 9.93776Z" fill="url(#paint0_linear_96_183)"/>
<path d="M20.6081 9.93776C26.2685 9.8513 30.8885 14.3064 30.9981 19.9664C31.0142 20.7974 30.9311 21.6062 30.76 22.3821C30.4702 23.6958 30.2979 25.0326 30.2979 26.3779V28.9782C30.2979 29.3766 29.975 29.6996 29.5766 29.6996H26.9762C25.6309 29.6996 24.2941 29.8719 22.9804 30.1616C22.2046 30.3327 21.3958 30.4158 20.5648 30.3997C14.9049 30.2902 10.4498 25.6703 10.5361 20.01C10.6203 14.4851 15.0832 10.0222 20.6081 9.93776Z" fill="url(#paint1_linear_96_183)"/>
<path d="M12.6602 0.599897C5.76431 0.494545 0.135934 5.92203 0.00236783 12.8175C-0.0171888 13.8298 0.083985 14.8153 0.292508 15.7604C0.645497 17.3608 0.855352 18.9894 0.855352 20.6284V23.7963C0.855352 24.2817 1.24879 24.6751 1.73419 24.6751H4.90212C6.54101 24.6751 8.16966 24.885 9.77009 25.238C10.7152 25.4465 11.7007 25.5477 12.713 25.5281C19.6083 25.3946 25.0358 19.7664 24.9307 12.8706C24.828 6.13975 19.391 0.702645 12.6602 0.599897Z" fill="url(#paint2_linear_96_183)"/>
<path d="M8.00387 12.3963C7.65173 12.0221 7.15331 11.7871 6.59882 11.7871C5.53241 11.7871 4.66792 12.6516 4.66792 13.718C4.66792 14.2724 4.90284 14.7709 5.27708 15.1231L9.44235 19.2883C9.79455 19.6625 10.293 19.8975 10.8474 19.8975C11.9138 19.8975 12.7783 19.033 12.7783 17.9666C12.7783 17.4122 12.5433 16.9137 12.1691 16.5615L8.00387 12.3963Z" fill="url(#paint3_linear_96_183)"/>
<path d="M6.59876 15.6487C7.66517 15.6487 8.52966 14.7842 8.52966 13.7178C8.52966 12.6514 7.66517 11.7869 6.59876 11.7869C5.53236 11.7869 4.66786 12.6514 4.66786 13.7178C4.66786 14.7842 5.53236 15.6487 6.59876 15.6487Z" fill="white"/>
<path d="M13.4646 12.3963C13.1124 12.0221 12.614 11.7871 12.0595 11.7871C10.9931 11.7871 10.1286 12.6516 10.1286 13.718C10.1286 14.2724 10.3636 14.7709 10.7378 15.1231L14.9031 19.2883C15.2553 19.6625 15.7537 19.8975 16.3081 19.8975C17.3745 19.8975 18.239 19.033 18.239 17.9666C18.239 17.4122 18.004 16.9137 17.6298 16.5615L13.4646 12.3963Z" fill="url(#paint4_linear_96_183)"/>
<path d="M12.0596 15.6487C13.126 15.6487 13.9905 14.7842 13.9905 13.7178C13.9905 12.6514 13.126 11.7869 12.0596 11.7869C10.9932 11.7869 10.1287 12.6514 10.1287 13.7178C10.1287 14.7842 10.9932 15.6487 12.0596 15.6487Z" fill="white"/>
<path d="M18.9252 12.3963C18.5731 12.0221 18.0747 11.7871 17.5202 11.7871C16.4538 11.7871 15.5893 12.6516 15.5893 13.718C15.5893 14.2724 15.8243 14.7709 16.1984 15.1231L20.3637 19.2883C20.7159 19.6625 21.2143 19.8975 21.7688 19.8975C22.8352 19.8975 23.6997 19.033 23.6997 17.9666C23.6997 17.4122 23.4647 16.9137 23.0905 16.5615L18.9252 12.3963Z" fill="url(#paint5_linear_96_183)"/>
<path d="M17.5205 15.6487C18.5869 15.6487 19.4514 14.7842 19.4514 13.7178C19.4514 12.6514 18.5869 11.7869 17.5205 11.7869C16.4541 11.7869 15.5896 12.6514 15.5896 13.7178C15.5896 14.7842 16.4541 15.6487 17.5205 15.6487Z" fill="white"/>
</g>
<defs>
<linearGradient id="paint0_linear_96_183" x1="18.7018" y1="18.1041" x2="33.725" y2="33.1273" gradientUnits="userSpaceOnUse">
<stop stop-color="#A7F3CE"/>
<stop offset="1" stop-color="#61DB99"/>
</linearGradient>
<linearGradient id="paint1_linear_96_183" x1="23.6197" y1="23.0216" x2="17.2386" y2="16.6412" gradientUnits="userSpaceOnUse">
<stop stop-opacity="0"/>
<stop offset="1" stop-color="#009E74"/>
</linearGradient>
<linearGradient id="paint2_linear_96_183" x1="7.9116" y1="11.049" x2="23.7729" y2="26.9104" gradientUnits="userSpaceOnUse">
<stop stop-color="#62E1FB"/>
<stop offset="1" stop-color="#00A2F3"/>
</linearGradient>
<linearGradient id="paint3_linear_96_183" x1="10.8941" y1="18.0136" x2="2.54287" y2="9.66265" gradientUnits="userSpaceOnUse">
<stop stop-opacity="0"/>
<stop offset="1" stop-color="#0075CD"/>
</linearGradient>
<linearGradient id="paint4_linear_96_183" x1="16.3545" y1="18.0134" x2="8.00348" y2="9.66247" gradientUnits="userSpaceOnUse">
<stop stop-opacity="0"/>
<stop offset="1" stop-color="#0075CD"/>
</linearGradient>
<linearGradient id="paint5_linear_96_183" x1="21.8151" y1="18.0135" x2="13.4641" y2="9.66259" gradientUnits="userSpaceOnUse">
<stop stop-opacity="0"/>
<stop offset="1" stop-color="#0075CD"/>
</linearGradient>
<clipPath id="clip0_96_183">
<rect width="31" height="31" fill="white"/>
</clipPath>
</defs>
</svg>
