<svg width="26" height="26" viewBox="0 0 26 26" fill="none" xmlns="http://www.w3.org/2000/svg">
<path d="M9.86577 5.90184C10.5136 4.006 13.1331 3.94859 13.9012 5.72959L13.9662 5.90292L14.8404 8.45959C15.0408 9.04592 15.3646 9.58247 15.7899 10.033C16.2152 10.4836 16.7323 10.8377 17.3061 11.0715L17.5412 11.1593L20.0979 12.0324C21.9937 12.6803 22.0511 15.2998 20.2712 16.0678L20.0979 16.1328L17.5412 17.0071C16.9547 17.2073 16.4179 17.531 15.9671 17.9564C15.5164 18.3817 15.1621 18.8988 14.9282 19.4728L14.8404 19.7068L13.9673 22.2645C13.3194 24.1603 10.6999 24.2178 9.93294 22.4378L9.86577 22.2645L8.9926 19.7078C8.79238 19.1213 8.46867 18.5845 8.04332 18.1338C7.61797 17.683 7.10088 17.3287 6.52694 17.0948L6.29294 17.0071L3.73627 16.1339C1.83935 15.4861 1.78194 12.8666 3.56294 12.0996L3.73627 12.0324L6.29294 11.1593C6.87927 10.9589 7.41582 10.6351 7.8664 10.2098C8.31697 9.78445 8.67108 9.26742 8.90485 8.69359L8.9926 8.45959L9.86577 5.90184ZM11.9165 6.60167L11.0434 9.15834C10.7383 10.0524 10.242 10.8692 9.58902 11.552C8.93606 12.2347 8.14213 12.7668 7.26252 13.1114L6.99169 13.21L4.43502 14.0832L6.99169 14.9563C7.88577 15.2614 8.7026 15.7577 9.38531 16.4107C10.068 17.0636 10.6002 17.8576 10.9448 18.7372L11.0434 19.008L11.9165 21.5647L12.7897 19.008C13.0948 18.1139 13.5911 17.2971 14.244 16.6144C14.897 15.9317 15.6909 15.3995 16.5705 15.0549L16.8414 14.9574L19.398 14.0832L16.8414 13.21C15.9473 12.9049 15.1304 12.4086 14.4477 11.7557C13.765 11.1027 13.2329 10.3088 12.8883 9.42917L12.7908 9.15834L11.9165 6.60167ZM20.5832 2.1665C20.7859 2.1665 20.9845 2.22336 21.1564 2.3306C21.3284 2.43784 21.4668 2.59117 21.556 2.77317L21.608 2.89992L21.9872 4.01142L23.0998 4.39059C23.3029 4.45959 23.4809 4.58734 23.6114 4.75764C23.7418 4.92794 23.8187 5.13312 23.8324 5.34719C23.8461 5.56126 23.7959 5.77458 23.6883 5.96011C23.5806 6.14563 23.4203 6.29502 23.2276 6.38934L23.0998 6.44134L21.9883 6.8205L21.6091 7.93309C21.54 8.13614 21.4121 8.31409 21.2418 8.44441C21.0714 8.57473 20.8662 8.65155 20.6521 8.66512C20.4381 8.67869 20.2248 8.62842 20.0393 8.52066C19.8539 8.41291 19.7046 8.25253 19.6104 8.05984L19.5584 7.93309L19.1792 6.82159L18.0666 6.44242C17.8635 6.37342 17.6855 6.24567 17.555 6.07537C17.4246 5.90507 17.3477 5.69988 17.334 5.48582C17.3203 5.27175 17.3704 5.05843 17.4781 4.8729C17.5858 4.68737 17.7461 4.53799 17.9388 4.44367L18.0666 4.39167L19.1781 4.0125L19.5573 2.89992C19.6303 2.68588 19.7685 2.50007 19.9525 2.36854C20.1365 2.23702 20.357 2.16637 20.5832 2.1665Z" fill="#22C55E"/>
</svg>
