<svg width="36" height="36" viewBox="0 0 36 36" fill="none" xmlns="http://www.w3.org/2000/svg">
<path d="M4.84609 17.654C5.61109 17.654 6.2307 18.2736 6.2307 19.0386C6.2307 19.8036 5.61109 20.4232 4.84609 20.4232C4.08109 20.4232 3.46147 19.8036 3.46147 19.0386C3.46147 18.2736 4.08109 17.654 4.84609 17.654ZM5.88455 5.88477C6.45778 5.88477 6.92301 6.35 6.92301 6.92323C6.92301 7.49646 6.45778 7.96169 5.88455 7.96169C5.31132 7.96169 4.84609 7.49646 4.84609 6.92323C4.84609 6.35 5.31132 5.88477 5.88455 5.88477ZM29.4229 10.0386C30.3791 10.0386 31.1537 10.8133 31.1537 11.7694C31.1537 12.7255 30.3791 13.5002 29.4229 13.5002C28.4669 13.5002 27.6922 12.7255 27.6922 11.7694C27.6922 10.8133 28.4669 10.0386 29.4229 10.0386Z" fill="#193772"/>
<path d="M25.6153 32.1923H6.92294V27.7844C6.92294 24.8663 9.28925 22.5 12.2073 22.5H15.2306L17.9999 26.6538L20.7691 22.5H23.7924C26.7105 22.5 29.0768 24.8663 29.0768 27.7844V32.1923H25.6153Z" fill="#EF727A"/>
<path d="M22.0056 13.8567C22.1045 14.3081 22.1541 14.7688 22.1537 15.2309C22.1537 18.0985 20.2942 20.4232 17.9999 20.4232C15.7056 20.4232 13.846 18.0985 13.846 15.2309C13.846 14.8356 13.8827 14.4514 13.9492 14.081C14.2448 14.1537 14.5584 14.1925 14.8845 14.1925C16.0905 14.1925 17.1359 13.6587 17.6537 12.8792C18.1716 13.6587 19.2169 14.1925 20.4229 14.1925C21.001 14.1925 21.5417 14.0699 22.0056 13.8567Z" fill="#FFD8A8"/>
<path d="M22.0056 13.8566C21.5417 14.0699 21.001 14.1924 20.4229 14.1924C19.2169 14.1924 18.1716 13.6586 17.6537 12.8791C17.8095 12.6444 17.9175 12.3869 17.9681 12.1155H21.3229C21.6325 12.6299 21.8657 13.219 22.0056 13.8566Z" fill="#513B2E"/>
<path d="M14.6768 12.1155H17.9682C17.9176 12.3869 17.8095 12.6444 17.6538 12.8791C17.1359 13.6586 16.0905 14.1924 14.8845 14.1924C14.5585 14.1924 14.2448 14.1536 13.9492 14.0809C14.0808 13.3568 14.3313 12.6901 14.6768 12.1155Z" fill="#5F4534"/>
<path d="M21.9599 8.94336V12.1155H14.0399V8.98836L14.044 8.97244L17.8871 10.0386L21.9599 8.94336Z" fill="#2D2C2E"/>
<path d="M21.9599 8.94321L17.8871 10.0384L14.044 8.97229L10.7999 8.07229L17.8871 6.5769L25.1999 8.07229L21.9599 8.94321Z" fill="#3C3B3D"/>
<path d="M33.0278 26.1645C33.2985 26.4345 33.2985 26.8734 33.0278 27.1435C32.7578 27.4142 32.3189 27.4142 32.0488 27.1435C31.7781 26.8735 31.7781 26.4346 32.0488 26.1645C32.3189 25.8938 32.7578 25.8938 33.0278 26.1645ZM30.9509 18.5491C31.2216 18.8191 31.2216 19.258 30.9509 19.5281C30.6809 19.7988 30.2419 19.7988 29.9719 19.5281C29.7012 19.2581 29.7012 18.8192 29.9719 18.5491C30.2419 18.2784 30.6809 18.2784 30.9509 18.5491ZM28.1816 5.39525C28.4523 5.66525 28.4523 6.10417 28.1816 6.37417C27.9116 6.64487 27.4727 6.64487 27.2026 6.37417C26.9319 6.10417 26.9319 5.66525 27.2026 5.39525C27.4727 5.12456 27.9116 5.12456 28.1816 5.39525ZM13.6432 4.01064C13.9139 4.28064 13.9139 4.71956 13.6432 4.98956C13.3732 5.26025 12.9342 5.26025 12.6642 4.98956C12.3936 4.71956 12.3936 4.28064 12.6642 4.01064C12.9343 3.73994 13.3732 3.73994 13.6432 4.01064ZM8.10471 12.3183C8.3754 12.5883 8.3754 13.0273 8.10471 13.2973C7.83471 13.5679 7.39579 13.5679 7.12579 13.2973C6.85509 13.0273 6.85509 12.5883 7.12579 12.3183C7.39585 12.0476 7.83471 12.0476 8.10471 12.3183ZM4.64317 25.4722C4.91386 25.7422 4.91386 26.1811 4.64317 26.4512C4.37317 26.7219 3.93425 26.7219 3.66425 26.4512C3.39355 26.1812 3.39355 25.7422 3.66425 25.4722C3.93432 25.2015 4.37317 25.2015 4.64317 25.4722ZM29.0768 32.8847H6.92294C6.54058 32.8847 6.23063 32.5747 6.23063 32.1924V27.7845C6.23063 24.4889 8.9118 21.8078 12.2073 21.8078H15.2306C15.613 21.8078 15.9229 22.1178 15.9229 22.5001C15.9229 22.8824 15.613 23.1924 15.2306 23.1924H12.2073C9.67521 23.1924 7.61525 25.2524 7.61525 27.7845V31.5001H28.3845V27.7845C28.3845 25.2524 26.3244 23.1924 23.7924 23.1924H20.7691C20.3869 23.1924 20.0768 22.8824 20.0768 22.5001C20.0768 22.1178 20.3869 21.8078 20.7691 21.8078H23.7924C27.0881 21.8078 29.7691 24.489 29.7691 27.7845V32.1924C29.7691 32.5747 29.4591 32.8847 29.0768 32.8847Z" fill="black"/>
<path d="M18.0006 27.3464C17.8865 27.3466 17.7741 27.3185 17.6735 27.2647C17.5728 27.2109 17.4871 27.1331 17.4239 27.0381L14.6546 22.8842C14.4425 22.5661 14.5285 22.1363 14.8466 21.9242C15.1649 21.7121 15.5947 21.7981 15.8066 22.1162L18.5759 26.27C18.788 26.5881 18.702 27.018 18.3839 27.2301C18.2705 27.306 18.137 27.3465 18.0006 27.3464Z" fill="black"/>
<path d="M17.9992 27.3463C17.8627 27.3463 17.7293 27.3058 17.6158 27.2299C17.2977 27.0179 17.2117 26.588 17.4239 26.2699L20.1931 22.116C20.4052 21.7978 20.8349 21.7119 21.1531 21.9241C21.4713 22.1362 21.5573 22.566 21.3451 22.8841L18.5759 27.0379C18.5127 27.1329 18.4269 27.2108 18.3263 27.2646C18.2257 27.3184 18.1133 27.3465 17.9992 27.3463ZM25.6153 32.8847C25.233 32.8847 24.9229 32.5747 24.9229 32.1924V28.0385C24.9229 27.6562 25.233 27.3462 25.6153 27.3462C25.9976 27.3462 26.3076 27.6562 26.3076 28.0385V32.1924C26.3076 32.5747 25.9976 32.8847 25.6153 32.8847ZM10.3846 32.8847C10.0022 32.8847 9.69225 32.5747 9.69225 32.1924V28.0385C9.69225 27.6562 10.0022 27.3462 10.3846 27.3462C10.7669 27.3462 11.0769 27.6562 11.0769 28.0385V32.1924C11.0769 32.5747 10.7668 32.8847 10.3846 32.8847ZM17.9999 21.1154C15.3277 21.1154 13.1537 18.4756 13.1537 15.2308C13.1537 14.8082 13.1921 14.3802 13.2677 13.9586C13.3353 13.5822 13.695 13.3322 14.0715 13.3995C14.4478 13.467 14.6981 13.8269 14.6306 14.2032C14.5695 14.5424 14.5387 14.8862 14.5383 15.2308C14.5383 17.7121 16.0912 19.7308 17.9999 19.7308C19.9086 19.7308 21.4614 17.7121 21.4614 15.2308C21.4614 14.8159 21.417 14.4036 21.3295 14.0052C21.2473 13.6318 21.4836 13.2625 21.8569 13.1804C22.2301 13.0981 22.5997 13.3345 22.6817 13.7079C22.7912 14.2081 22.8463 14.7188 22.846 15.2308C22.846 18.4756 20.672 21.1154 17.9999 21.1154Z" fill="black"/>
<path d="M20.4229 14.8848C19.024 14.8848 17.742 14.2631 17.0771 13.2623C17.0017 13.1488 16.9614 13.0155 16.9614 12.8793C16.9614 12.743 17.0016 12.6098 17.077 12.4963C17.1839 12.3351 17.2547 12.1644 17.2875 11.9888C17.3575 11.6129 17.7189 11.3648 18.0949 11.435C18.4708 11.505 18.7188 11.8664 18.6487 12.2423C18.6133 12.432 18.5576 12.6173 18.4824 12.7949C18.9382 13.2317 19.6581 13.5002 20.423 13.5002C20.6767 13.5002 20.9268 13.4713 21.1654 13.4154C21.0511 13.0798 20.9053 12.7643 20.7298 12.4724C20.5327 12.1448 20.6386 11.7194 20.9662 11.5223C21.2939 11.3252 21.7192 11.4311 21.9164 11.7586C22.2693 12.3453 22.5269 13.0013 22.682 13.7083C22.7159 13.8626 22.6959 14.0239 22.6255 14.1653C22.5551 14.3067 22.4384 14.4197 22.2949 14.4857C21.7268 14.7468 21.0795 14.8848 20.4229 14.8848Z" fill="black"/>
<path d="M14.8846 14.8847C14.509 14.8847 14.1388 14.8405 13.784 14.7532C13.6128 14.7111 13.4642 14.6054 13.3683 14.4574C13.2725 14.3095 13.2367 14.1306 13.2682 13.9572C13.4136 13.1564 13.6879 12.4168 14.0836 11.7587C14.2806 11.4311 14.706 11.3252 15.0336 11.5222C15.3613 11.7192 15.4672 12.1445 15.2702 12.4722C15.0794 12.7896 14.9243 13.1332 14.8064 13.4992C14.8324 13.4998 14.8584 13.5001 14.8845 13.5001C15.8112 13.5001 16.6719 13.106 17.077 12.496C17.2885 12.1776 17.7183 12.0908 18.0367 12.3025C18.3553 12.514 18.442 12.9437 18.2303 13.2622C17.5656 14.263 16.2835 14.8847 14.8846 14.8847Z" fill="black"/>
<path d="M21.9599 12.8079H14.0399C13.6575 12.8079 13.3476 12.4979 13.3476 12.1156V8.98842C13.3476 8.60605 13.6575 8.29611 14.0399 8.29611C14.4222 8.29611 14.7322 8.60605 14.7322 8.98842V11.4233H21.2676V8.93303C21.2676 8.55067 21.5776 8.24072 21.9599 8.24072C22.3422 8.24072 22.6523 8.55067 22.6523 8.93303V12.1156C22.6523 12.4979 22.3422 12.8079 21.9599 12.8079Z" fill="black"/>
<path d="M17.8871 10.7308C17.8248 10.7308 17.7625 10.7225 17.702 10.7056L10.6148 8.73949C10.4654 8.69799 10.3343 8.60755 10.2424 8.48266C10.1505 8.35776 10.1032 8.20565 10.1081 8.05067C10.113 7.8957 10.1697 7.74685 10.2692 7.62796C10.3687 7.50906 10.5053 7.42702 10.657 7.39496L17.7441 5.89957C17.837 5.88 17.9328 5.87969 18.0258 5.89868L25.3386 7.39406C25.4913 7.42531 25.6291 7.50721 25.7295 7.62648C25.8299 7.74575 25.8871 7.89542 25.8918 8.05126C25.8966 8.20709 25.8486 8.35996 25.7556 8.48512C25.6626 8.61028 25.5301 8.70039 25.3796 8.74087L18.0668 10.707C18.0082 10.7228 17.9478 10.7309 17.8871 10.7308ZM13.7195 8.16391L17.8899 9.32089L22.1923 8.16404L17.8893 7.28412L13.7195 8.16391ZM26.9999 21.1155H22.846C22.4638 21.1155 22.1537 20.8054 22.1537 20.4232C22.1537 20.0409 22.4638 19.7308 22.846 19.7308H25.0706C22.2452 16.8513 21.3251 12.468 21.2815 12.2533C21.2053 11.8786 21.4473 11.5132 21.8222 11.437C22.1964 11.3608 22.5622 11.6029 22.6384 11.9776C22.6549 12.057 23.8249 17.5666 27.3734 19.8402C27.4995 19.9209 27.596 20.0403 27.6485 20.1805C27.701 20.3207 27.7066 20.4742 27.6645 20.6178C27.6224 20.7615 27.5349 20.8876 27.4151 20.9774C27.2952 21.0671 27.1496 21.1155 26.9999 21.1155ZM13.1538 21.1155H8.99993C8.85029 21.1154 8.70468 21.0669 8.58492 20.9772C8.46516 20.8875 8.3777 20.7614 8.33563 20.6178C8.29357 20.4741 8.29917 20.3208 8.35159 20.1806C8.40402 20.0405 8.50045 19.9211 8.62643 19.8403C12.1926 17.5553 13.3502 12.0332 13.3615 11.9777C13.4376 11.603 13.8029 11.3608 14.1778 11.4371C14.5524 11.5132 14.7946 11.8786 14.7184 12.2534C14.6748 12.4681 13.7546 16.8514 10.9293 19.7309H13.1538C13.5361 19.7309 13.8461 20.0409 13.8461 20.4232C13.8461 20.8055 13.5361 21.1155 13.1538 21.1155ZM4.84609 21.1155C3.70087 21.1155 2.76917 20.1838 2.76917 19.0385C2.76917 17.8933 3.70087 16.9616 4.84609 16.9616C5.9913 16.9616 6.92301 17.8933 6.92301 19.0385C6.92301 20.1838 5.9913 21.1155 4.84609 21.1155ZM4.84609 18.3462C4.46435 18.3462 4.15378 18.6568 4.15378 19.0385C4.15378 19.4203 4.46435 19.7308 4.84609 19.7308C5.22783 19.7308 5.5384 19.4203 5.5384 19.0385C5.5384 18.6568 5.22783 18.3462 4.84609 18.3462ZM5.88455 8.65392C4.9302 8.65392 4.15378 7.8775 4.15378 6.92315C4.15378 5.96881 4.9302 5.19238 5.88455 5.19238C6.8389 5.19238 7.61532 5.96881 7.61532 6.92315C7.61532 7.8775 6.8389 8.65392 5.88455 8.65392ZM5.88455 6.577C5.69368 6.577 5.5384 6.73228 5.5384 6.92315C5.5384 7.11402 5.69368 7.26931 5.88455 7.26931C6.07542 7.26931 6.2307 7.11402 6.2307 6.92315C6.2307 6.73228 6.07535 6.577 5.88455 6.577ZM29.4229 14.1924C28.0869 14.1924 26.9999 13.1054 26.9999 11.7693C26.9999 10.4332 28.0869 9.34623 29.4229 9.34623C30.759 9.34623 31.846 10.4332 31.846 11.7693C31.846 13.1054 30.759 14.1924 29.4229 14.1924ZM29.4229 10.7308C28.8503 10.7308 28.3845 11.1967 28.3845 11.7693C28.3845 12.3419 28.8503 12.8078 29.4229 12.8078C29.9956 12.8078 30.4614 12.3419 30.4614 11.7693C30.4614 11.1967 29.9956 10.7308 29.4229 10.7308Z" fill="black"/>
</svg>
