<svg width="31" height="30" viewBox="0 0 31 30" fill="none" xmlns="http://www.w3.org/2000/svg">
<path d="M3 3.75H10.5C11.8261 3.75 13.0979 4.27678 14.0355 5.21447C14.9732 6.15215 15.5 7.42392 15.5 8.75V26.25C15.5 25.2554 15.1049 24.3016 14.4016 23.5983C13.6984 22.8951 12.7446 22.5 11.75 22.5H3V3.75Z" stroke="#111827" stroke-width="2" stroke-linecap="round" stroke-linejoin="round"/>
<path d="M28 3.75H20.5C19.1739 3.75 17.9021 4.27678 16.9645 5.21447C16.0268 6.15215 15.5 7.42392 15.5 8.75V26.25C15.5 25.2554 15.8951 24.3016 16.5983 23.5983C17.3016 22.8951 18.2554 22.5 19.25 22.5H28V3.75Z" stroke="#111827" stroke-width="2" stroke-linecap="round" stroke-linejoin="round"/>
</svg>
