<svg width="56" height="57" viewBox="0 0 56 57" fill="none" xmlns="http://www.w3.org/2000/svg">
<rect y="0.25" width="56" height="56" rx="28" fill="#4F46E5"/>
<path d="M28 15.25C29.7239 15.25 31.3772 15.9348 32.5962 17.1538C33.8152 18.3728 34.5 20.0261 34.5 21.75C34.5 23.4739 33.8152 25.1272 32.5962 26.3462C31.3772 27.5652 29.7239 28.25 28 28.25C26.2761 28.25 24.6228 27.5652 23.4038 26.3462C22.1848 25.1272 21.5 23.4739 21.5 21.75C21.5 20.0261 22.1848 18.3728 23.4038 17.1538C24.6228 15.9348 26.2761 15.25 28 15.25ZM28 31.5C35.1825 31.5 41 34.4088 41 38V41.25H15V38C15 34.4088 20.8175 31.5 28 31.5Z" fill="white"/>
</svg>
