<svg width="56" height="56" viewBox="0 0 56 56" fill="none" xmlns="http://www.w3.org/2000/svg">
<rect width="56" height="56" rx="28" fill="#0D9488"/>
<path d="M28 15C29.7239 15 31.3772 15.6848 32.5962 16.9038C33.8152 18.1228 34.5 19.7761 34.5 21.5C34.5 23.2239 33.8152 24.8772 32.5962 26.0962C31.3772 27.3152 29.7239 28 28 28C26.2761 28 24.6228 27.3152 23.4038 26.0962C22.1848 24.8772 21.5 23.2239 21.5 21.5C21.5 19.7761 22.1848 18.1228 23.4038 16.9038C24.6228 15.6848 26.2761 15 28 15ZM28 31.25C35.1825 31.25 41 34.1588 41 37.75V41H15V37.75C15 34.1588 20.8175 31.25 28 31.25Z" fill="white"/>
</svg>
