<svg width="64" height="64" viewBox="0 0 64 64" fill="none" xmlns="http://www.w3.org/2000/svg">
<path d="M16 21.333C16 17.0895 17.6857 13.0199 20.6863 10.0193C23.6869 7.01872 27.7565 5.33301 32 5.33301C36.2435 5.33301 40.3131 7.01872 43.3137 10.0193C46.3143 13.0199 48 17.0895 48 21.333C48 39.9997 56 45.333 56 45.333H8C8 45.333 16 39.9997 16 21.333Z" stroke="white" stroke-width="5.33333" stroke-linecap="round" stroke-linejoin="round"/>
<path d="M27.4667 56C27.913 56.8118 28.5692 57.4889 29.3667 57.9605C30.1641 58.4321 31.0736 58.6809 32 58.6809C32.9265 58.6809 33.8359 58.4321 34.6334 57.9605C35.4308 57.4889 36.087 56.8118 36.5333 56" stroke="white" stroke-width="5.33333" stroke-linecap="round" stroke-linejoin="round"/>
</svg>
